<mxfile host="app.diagrams.net" modified="2024-07-18T16:49:01.829Z" agent="Mozilla/5.0 (Windows NT 10.0; Win64; x64) AppleWebKit/537.36 (KHTML, like Gecko) Chrome/126.0.0.0 Safari/537.36 Edg/126.0.0.0" version="24.6.4" etag="5acilOotd0nCZT0eG60R" type="github">
  <diagram name="Page-1" id="un0iEnPwIt7Do9Gjm1e6">
    <mxGraphModel>
      <root>
        <mxCell id="0" />
        <mxCell id="1" parent="0" />
      </root>
    </mxGraphModel>
  </diagram>
</mxfile>
